<?xml version="1.0" encoding="utf-8"?>
<!-- Generator: Adobe Illustrator 19.0.0, SVG Export Plug-In . SVG Version: 6.00 Build 0)  -->
<svg version="1.1" id="Layer_1" xmlns="http://www.w3.org/2000/svg" xmlns:xlink="http://www.w3.org/1999/xlink" x="0px" y="0px"
	 viewBox="0 0 483.4 483.4" style="enable-background:new 0 0 483.4 483.4;" xml:space="preserve">
<style type="text/css">
	.st0{fill:#022A53;}
</style>
<g id="XMLID_15_">
	<g id="XMLID_27_">
		<path id="XMLID_28_" class="st0" d="M256.8,166.2V287h-22.4V185h-25.5v-18.8H256.8z"/>
	</g>
	<g id="XMLID_16_">
		<path id="XMLID_24_" class="st0" d="M306.9,359.9c-1.5-4.4-5.4-5.4-8.6-5.9c-3.5-0.5-7-1-10.4-1.5c-1.3-0.2-2.7-0.4-4-0.6
			c-5.2-0.8-10.6-1.6-15.9-2.3c-1.4-0.2-2.4-0.5-3.2-1.1c-0.9-0.6-1.5-1.5-2.1-2.7c-2.5-5.5-5.2-10.9-7.9-16.2
			c-1.9-3.7-3.8-7.6-5.6-11.4c-1.9-4-4.7-6-8.4-6.1c-3.9-0.1-6.8,2-8.9,6.2c-5.3,11-9.8,20.1-14.2,28.6c-0.3,0.5-0.9,1.1-1.5,1.5
			c-0.5,0.4-1.1,0.6-1.5,0.7c-6.6,1.1-13.6,2.2-21.4,3.4c-3.3,0.5-6.8,1-10.6,1.5c-2.9,0.4-7,1.5-8.5,6c-1.2,3.7-0.2,7.1,3.3,10.3
			c1,1,2,1.9,3,2.9c1.6,1.5,3.2,3.1,4.7,4.6c4.3,4.2,8.7,8.5,13.2,12.6c3,2.7,3.8,5.1,2.9,9.2c-0.2,1.1-0.4,2.2-0.6,3.2
			c-1.2,6.2-2.2,12.5-3.2,18.5c-0.5,2.9-1,5.8-1.4,8.6l0,0.2c-0.2,3.6,1.2,6.7,3.9,8.4c2.7,1.7,6.2,1.8,9.4,0.1
			c10.5-5.4,19.8-10.3,28.7-15.2c0,0,0.1,0,0.1-0.1c1.8-1,3.2-1,5.1,0c0.1,0,0.2,0.1,0.2,0.1c5.2,2.8,10.5,5.6,15.7,8.3
			c4,2.1,8.1,4.3,12.2,6.4c1.5,0.8,3.4,1.6,5.6,1.6c1.5,0,3.2-0.4,4.8-1.6c4-2.9,3.8-7,3.3-9.9c-1.6-8.8-3.1-17.5-4.4-26.1
			c-0.3-1.9-0.6-3.9-0.9-5.8c-0.2-1.2,0.5-3.1,1.3-4c6.6-6.7,13.3-13.2,19.7-19.3c1-0.9,1.9-1.8,2.8-2.7
			C305.8,368.4,308.7,364.9,306.9,359.9z M261.7,396.9c1.1,4.7,1.8,9.6,2.6,14.7c-1.1,0.6-2.2,1.3-3.3,1.9
			c-3.7-1.9-7.3-3.7-10.6-5.8c-1.7-1.1-3.3-1.9-4.9-2.5c-3.4-1.2-6.6-1.2-10,0c-1.6,0.6-3.2,1.4-4.9,2.5c-3.3,2.2-7,4-10.8,5.9
			c-1-0.6-2.1-1.2-3.1-1.8c0.9-5.3,1.7-10.4,2.7-15.4c0-0.1,0.1-0.3,0.1-0.4c1-5.5-0.3-9.5-4.3-13.2c-3.8-3.5-7.3-7.2-10.9-11.2
			c-0.8-0.9-1.6-1.8-2.5-2.7c0.9-0.1,1.7-0.3,2.6-0.4c4.3-0.7,8.7-1.5,13.1-1.8c0.2,0,0.3,0,0.5,0c7-0.5,11.4-3.3,14.1-8.9
			c0.3-0.5,0.5-1.1,0.8-1.7c1.6-4.2,3.8-8.3,6-12.6c0.5-1,1.1-2.1,1.6-3.1c0.5,1,1.1,2.1,1.6,3.1c2.3,4.4,4.4,8.5,6.1,12.7
			c0.2,0.6,0.5,1.1,0.7,1.7c2.7,5.6,7.2,8.4,14.2,8.9c0.2,0,0.3,0,0.5,0c4.3,0.3,8.5,1,13,1.8c0.9,0.1,1.8,0.3,2.7,0.4
			c-0.8,0.9-1.6,1.7-2.4,2.6c-3.5,3.8-6.9,7.4-10.5,10.7c-4.4,4-5.9,8.2-4.9,13.8C261.6,396.3,261.7,396.6,261.7,396.9z"/>
		<path id="XMLID_18_" class="st0" d="M460.8,212.7c-10,3.2-19.9,6.6-29.8,9.9c-10.1,3.3-20.1,6.6-30.7,10.1c0-2.4,0-4.2,0-6
			c0-28.1,0-56.2,0.1-84.4c0-4.2-1.2-7.4-5-9.5c-50-28.8-99.9-57.7-149.9-86.5c-3.3-1.9-6.5-2-9.9-0.1
			c-49.9,28.9-99.9,57.7-149.9,86.5c-3.8,2.2-5.1,5.2-5.1,9.5c0.1,28.1,0,56.2,0,84.4c0,1.8,0,3.6,0,6.1c-2.1-0.7-3.6-1.1-5-1.5
			c-18.4-6.1-36.9-12.3-55.3-18.3c-7.2-2.4-12.5,2-11.4,9.3c4.8,30.4,9.8,60.7,14.6,91.1c0.7,4.3,2.9,6.8,7,8.1
			c4.9,1.5,9.8,3.3,14.7,4.6c3.3,0.8,4.9,2.7,6.2,5.7c7,16.5,14.1,33,21.1,49.5c1.5,3.7,3.7,6.1,7.9,6.6c31.7,4,63.3,8.3,95,11.9
			c5,0.6,9.9,1.3,14.7,2.5c0.2-0.9,0.3-1.8,0.5-2.7c0.1-0.7,0.2-1,0.2-1.2c-0.1-0.1-0.3-0.3-0.7-0.7c-5-4.4-9.7-9.1-14.3-13.7
			c-1.6-1.6-3.3-3.2-4.9-4.9c-1-1-2.1-2-3.1-3c-4.2-4-5.9-8.1-6.4-11.7c-20.1-11.6-40.3-23.2-60.4-34.8c-3.4-2-4.4-4.1-4.3-7.9
			c0.1-28.6,0.1-57.2,0.1-85.9c0-28.6,0.1-57.2-0.1-85.9c0-3.6,0.9-5.6,4.1-7.5c45.3-26,90.5-52.1,135.6-78.3
			c3.2-1.9,5.4-1.7,8.5,0.1c45,26.1,90.1,52.1,135.2,78.1c3.1,1.8,4.4,3.6,4.4,7.3c-0.1,57.6-0.1,115.2,0,172.7c0,3.5-1.2,5.3-4.1,7
			c-20.2,11.6-40.4,23.3-60.6,34.9c-0.5,3.7-2.3,7.8-6.7,12l-3,2.9c-5.5,5.2-12.6,12.1-19.6,19.2c0.2,1.1,0.3,2.2,0.5,3.4
			c36-4.7,72-9.3,108-13.7c5.2-0.6,8-2.9,9.9-7.6c4.9-12,11.2-23.5,15-35.8c4.1-13.3,11.7-21.2,25.5-22.9c0.3,0,0.6-0.2,0.9-0.3
			c4.3-1.2,6.5-3.9,7.2-8.5c4.7-30.2,9.7-60.4,14.5-90.6C473.2,214.9,468,210.4,460.8,212.7z M40.5,307.6c-0.8-0.3-1.7-1.6-1.8-2.6
			c-4-24.2-7.9-48.4-11.9-73.3c17.7,5.9,34.7,11.5,51.6,17.3c1,0.3,2.2,2.1,2.2,3.1c0.1,22.6,0.1,45.2,0.1,68.4
			C67,316.1,53.7,311.9,40.5,307.6z M156.3,379.8c0.4,0.2,0.8,0.5,1.2,0.8c-0.1,0.3-0.2,0.5-0.3,0.8c-22.6-2.9-45.2-5.7-67.7-8.7
			c-1.4-0.2-3.3-1.1-3.8-2.2c-5.2-11.6-10.2-23.4-15.9-36.6c6.6,2.3,12.2,3.3,16.9,6C110.1,352.9,133.1,366.4,156.3,379.8z
			 M409.4,338.3c-4.3,10.2-8.6,20.5-13.2,30.6c-0.8,1.7-3.1,3.5-4.9,3.7c-22.4,3.1-44.8,5.9-67.2,8.7c-0.2-0.4-0.4-0.8-0.6-1.1
			c29-14.7,55.3-34.6,85.8-46.4c0.4,0.4,0.7,0.7,1.1,1.1C410,336,409.8,337.2,409.4,338.3z M445.8,285.1c-1,6.2-1.9,12.5-3.1,18.7
			c-0.3,1.5-1.5,3.5-2.8,4c-12.9,4.4-25.8,8.4-39.2,12.7c-0.1-1.7-0.3-2.9-0.3-4.2c0-20.8,0-41.6,0-62.4c0-2.4-0.2-4.3,3-5.3
			c16.7-5.4,33.4-11.1,51-16.9C451.4,250,448.6,267.6,445.8,285.1z"/>
		<path id="XMLID_17_" class="st0" d="M360.5,303.6c-0.2-45.3-0.1-90.5,0-135.8c0-4.9-1.7-8.1-6-10.5
			c-35.9-20.6-71.7-41.3-107.5-62.1c-4.6-2.7-8.4-2.6-13,0.1c-35.6,20.7-71.3,41.3-107.1,61.8c-4.4,2.5-6.3,5.7-6.3,10.8
			c0.2,22.6,0.1,45.3,0.1,67.9c0,22.5,0.1,44.9-0.1,67.4c-0.1,5.5,1.9,8.9,6.6,11.6c17.2,9.8,34.3,19.7,51.5,29.6
			c3.6-0.5,7.1-1,10.4-1.5c5.3-0.8,10.3-1.5,15-2.3c-21.3-12.3-42.5-24.6-63.8-36.8c-2.6-1.5-3.7-3.1-3.6-6.2
			c0.1-41.3,0.1-82.5,0-123.8c0-2.9,0.9-4.4,3.4-5.9c32.4-18.6,64.8-37.3,97.2-56.1c2.5-1.4,4.3-1.5,6.7,0
			c32.3,18.8,64.7,37.5,97.2,56.1c2.7,1.6,3.4,3.4,3.4,6.4c-0.1,20.5-0.1,40.9-0.1,61.4c0,20.6-0.1,41.3,0.1,61.9
			c0,3.1-1,4.7-3.6,6.2c-21.4,12.3-42.7,24.6-64,36.9c3.7,0.5,7.3,1.1,10.9,1.6l4.3,0.6c3.1,0.5,6.7,1,10.4,1.5
			c17.2-9.9,34.4-19.8,51.6-29.7C358.5,312.2,360.5,308.9,360.5,303.6z"/>
	</g>
</g>
</svg>
